<?xml version="1.0" encoding="UTF-8"?>
<svg version="1.1" xmlns="http://www.w3.org/2000/svg" width="2000" height="2000">
<path d="M0 0 C46.370153 -0.54970414 92.7399603 -0.97241526 139.11273098 -1.22556791 C144.59119122 -1.25558376 150.06964504 -1.2866476 155.5480957 -1.31835938 C156.63872605 -1.32465483 157.7293564 -1.33095028 158.85303616 -1.3374365 C176.49751931 -1.44178338 194.14011993 -1.63095936 211.78348739 -1.85166711 C229.89641102 -2.07635365 248.00835102 -2.20946088 266.12261099 -2.25812387 C277.29545519 -2.29100909 288.46297904 -2.39471648 299.63418435 -2.58999521 C307.30191695 -2.71717782 314.96691294 -2.75513811 322.63562293 -2.72403306 C327.05823045 -2.7086971 331.47157354 -2.73161607 335.89251709 -2.8609314 C361.67287527 -3.57857899 361.67287527 -3.57857899 368.87129474 2.37459183 C373.7333184 8.07559255 376.94705634 14.34758192 379.81243408 21.23313713 C381.32262042 24.75166056 383.19641486 27.74971884 385.32421875 30.92578125 C385.89100342 31.83368408 386.45778809 32.74158691 387.04174805 33.67700195 C393.99217242 44.80737298 400.98153057 55.91243831 408 67 C415.18029382 78.34320686 422.32410438 89.70823745 429.43286133 101.09643555 C433.27096591 107.24220848 437.12487354 113.37751023 441 119.5 C446.17684221 127.67913011 451.30799264 135.88633973 456.43359375 144.09765625 C460.27149019 150.24299963 464.12512731 156.37791117 468 162.5 C473.17684221 170.67913011 478.30799264 178.88633973 483.43359375 187.09765625 C487.27149019 193.24299963 491.12512731 199.37791117 495 205.5 C499.52586201 212.65061666 504.01887978 219.82126466 508.5 227 C514.96500745 237.35564288 521.47051621 247.68492276 528 258 C535.18029382 269.34320686 542.32410438 280.70823745 549.43286133 292.09643555 C553.27096591 298.24220848 557.12487354 304.37751023 561 310.5 C566.17684221 318.67913011 571.30799264 326.88633973 576.43359375 335.09765625 C580.27149019 341.24299963 584.12512731 347.37791117 588 353.5 C593.17684221 361.67913011 598.30799264 369.88633973 603.43359375 378.09765625 C607.27149019 384.24299963 611.12512731 390.37791117 615 396.5 C619.52586201 403.65061666 624.01887978 410.82126466 628.5 418 C634.96500745 428.35564288 641.47051621 438.68492276 648 449 C655.17659789 460.33736816 662.31681347 471.6964983 669.421875 483.07885742 C672.87308206 488.6051293 676.3329521 494.12560722 679.81567383 499.63208008 C680.80075649 501.19044197 681.78372584 502.75014209 682.7644043 504.3112793 C685.13308672 508.07784601 687.53293819 511.8165293 690 515.51953125 C690.71095825 516.60524414 690.71095825 516.60524414 691.4362793 517.71289062 C692.32483081 519.0684952 693.22650603 520.41562926 694.14379883 521.75195312 C695.91212632 524.47547539 696.97481052 526.54658944 697.15625 529.8125 C695.3743176 534.72485418 692.56273275 538.84574361 689.6875 543.1875 C688.39806617 545.17293597 687.1090097 547.15861707 685.8203125 549.14453125 C685.17352539 550.13404785 684.52673828 551.12356445 683.86035156 552.14306641 C681.22144352 556.19562571 678.63825612 560.28212044 676.0625 564.375 C675.58385498 565.13321045 675.10520996 565.8914209 674.61206055 566.67260742 C669.90578515 574.13215076 665.23713761 581.61518781 660.56665039 589.09716797 C656.25284936 596.00476246 651.91404816 602.89596184 647.55859375 609.77734375 C643.51576867 616.17039781 639.50536438 622.58342346 635.5 629 C628.560222 640.1161299 621.57050694 651.19988483 614.56152344 662.27246094 C607.86180847 672.85882597 601.20115599 683.46876829 594.56713867 694.09643555 C590.25313219 701.00424738 585.91420503 707.895714 581.55859375 714.77734375 C577.51576885 721.17039752 573.5053202 727.58339613 569.5 734 C564.54317759 741.94092963 559.56495249 749.86756829 554.55859375 757.77734375 C550.51576885 764.17039752 546.5053202 770.58339613 542.5 777 C537.54317759 784.94092963 532.56495249 792.86756829 527.55859375 800.77734375 C523.51576867 807.17039781 519.50536438 813.58342346 515.5 820 C508.560222 831.1161299 501.57050694 842.19988483 494.56152344 853.27246094 C487.86180847 863.85882597 481.20115599 874.46876829 474.56713867 885.09643555 C470.25313219 892.00424738 465.91420503 898.895714 461.55859375 905.77734375 C457.51576885 912.17039752 453.5053202 918.58339613 449.5 925 C444.54317759 932.94092963 439.56495249 940.86756829 434.55859375 948.77734375 C430.51576885 955.17039752 426.5053202 961.58339613 422.5 968 C417.54317759 975.94092963 412.56495249 983.86756829 407.55859375 991.77734375 C402.8688982 999.19331564 398.22355293 1006.63678175 393.57739258 1014.08007812 C389.20140499 1021.08705171 384.80517502 1028.08079421 380.3828125 1035.05859375 C379.95097656 1035.74050781 379.51914063 1036.42242188 379.07421875 1037.125 C378.60229788 1037.80305191 378.13037701 1038.48110382 377.6441555 1039.17970276 C376.26497946 1041.54546827 375.53516001 1043.34828479 374.7333622 1045.91221619 C372.84770587 1050.98994748 370.58578673 1054.94940347 366 1058 C355.78916548 1061.00407946 344.42905103 1060.06119286 333.89660954 1059.85704994 C329.41277279 1059.78774463 324.92929028 1059.81135044 320.44506836 1059.82348633 C312.6828096 1059.8318636 304.92270778 1059.78180537 297.16099167 1059.69168091 C285.93934276 1059.5614668 274.71873341 1059.51996058 263.49641092 1059.49987304 C245.28819482 1059.46488221 227.08112765 1059.35848046 208.87353516 1059.20703125 C191.18999976 1059.06009435 173.50677678 1058.94687622 155.82275391 1058.87890625 C154.73214076 1058.87470267 153.64152761 1058.8704991 152.51786558 1058.86616814 C147.04640381 1058.84528706 141.57493983 1058.82506784 136.10347438 1058.80517769 C90.73485389 1058.63939544 45.36748633 1058.35766189 0 1058 C1.35056808 1054.5298384 2.81541819 1051.49928564 4.8359375 1048.3671875 C5.39917725 1047.48885254 5.96241699 1046.61051758 6.54272461 1045.70556641 C7.14737549 1044.77147949 7.75202637 1043.83739258 8.375 1042.875 C9.65523246 1040.88039094 10.93517575 1038.88559625 12.21484375 1036.890625 C13.17559814 1035.39692383 13.17559814 1035.39692383 14.15576172 1033.87304688 C16.76877268 1029.80236736 19.35645341 1025.71599859 21.9375 1021.625 C22.41622559 1020.86687012 22.89495117 1020.10874023 23.38818359 1019.32763672 C28.09356973 1011.86750031 32.76284709 1004.38483669 37.43334961 996.90283203 C41.74715064 989.99523754 46.08595184 983.10403816 50.44140625 976.22265625 C54.48423115 969.82960248 58.4946798 963.41660387 62.5 957 C67.45682241 949.05907037 72.43504751 941.13243171 77.44140625 933.22265625 C81.48423115 926.82960248 85.4946798 920.41660387 89.5 914 C94.45682241 906.05907037 99.43504751 898.13243171 104.44140625 890.22265625 C108.48423133 883.82960219 112.49463562 877.41657654 116.5 871 C123.439778 859.8838701 130.42949306 848.80011517 137.43847656 837.72753906 C144.13819153 827.14117403 150.79884401 816.53123171 157.43286133 805.90356445 C161.74686781 798.99575262 166.08579497 792.104286 170.44140625 785.22265625 C174.48423115 778.82960248 178.4946798 772.41660387 182.5 766 C187.45682241 758.05907037 192.43504751 750.13243171 197.44140625 742.22265625 C201.48423115 735.82960248 205.4946798 729.41660387 209.5 723 C214.45682241 715.05907037 219.43504751 707.13243171 224.44140625 699.22265625 C228.48423133 692.82960219 232.49463562 686.41657654 236.5 680 C243.439778 668.8838701 250.42949306 657.80011517 257.43847656 646.72753906 C264.13819153 636.14117403 270.79884401 625.53123171 277.43286133 614.90356445 C281.74686781 607.99575262 286.08579497 601.104286 290.44140625 594.22265625 C294.48423151 587.82960191 298.4945914 581.41654918 302.5 575 C306.6114352 568.41522239 310.72479725 561.83178534 314.86669922 555.26611328 C315.85742735 553.69550932 316.84610037 552.12360675 317.83251953 550.55029297 C320.09688999 546.95054455 322.3974686 543.39140581 324.8125 539.890625 C325.24643066 539.25141113 325.68036133 538.61219727 326.12744141 537.95361328 C327.28716224 536.2537485 328.46701141 534.56766414 329.6484375 532.8828125 C331.26605651 530.16184995 331.26605651 530.16184995 330.5625 527.65625 C328.3212394 523.84610698 326.01804072 520.0919149 323.625 516.375 C322.52986251 514.65760654 321.43481277 512.94015713 320.33984375 511.22265625 C319.78151855 510.35012207 319.22319336 509.47758789 318.64794922 508.57861328 C316.14709668 504.66542743 313.66653702 500.73952955 311.1875 496.8125 C310.70104004 496.04276855 310.21458008 495.27303711 309.71337891 494.47998047 C304.97181053 486.97084075 300.26975471 479.43713515 295.56713867 471.90356445 C291.72903409 465.75779152 287.87512646 459.62248977 284 453.5 C279.47413799 446.34938334 274.98112022 439.17873534 270.5 432 C264.03499255 421.64435712 257.52948379 411.31507724 251 401 C243.81970618 389.65679314 236.67589562 378.29176255 229.56713867 366.90356445 C225.72903409 360.75779152 221.87512646 354.62248977 218 348.5 C212.82315779 340.32086989 207.69200736 332.11366027 202.56640625 323.90234375 C198.72850981 317.75700037 194.87487269 311.62208883 191 305.5 C185.82315779 297.32086989 180.69200736 289.11366027 175.56640625 280.90234375 C171.72850981 274.75700037 167.87487269 268.62208883 164 262.5 C159.47413799 255.34938334 154.98112022 248.17873534 150.5 241 C144.03499255 230.64435712 137.52948379 220.31507724 131 210 C123.81970618 198.65679314 116.67589562 187.29176255 109.56713867 175.90356445 C105.72903409 169.75779152 101.87512646 163.62248977 98 157.5 C92.82315779 149.32086989 87.69200736 141.11366027 82.56640625 132.90234375 C78.72850981 126.75700037 74.87487269 120.62208883 71 114.5 C65.82315779 106.32086989 60.69200736 98.11366027 55.56640625 89.90234375 C51.72850981 83.75700037 47.87487269 77.62208883 44 71.5 C39.47413758 64.34938268 34.98122164 57.17867251 30.5 50 C25.92875745 42.6798659 21.35369662 35.36227997 16.75 28.0625 C16.27272461 27.30525635 15.79544922 26.5480127 15.30371094 25.76782227 C12.83614282 21.86449382 10.34201333 17.980696 7.8125 14.1171875 C7.29848633 13.33077881 6.78447266 12.54437012 6.25488281 11.73413086 C5.27411135 10.2373565 4.28927637 8.74323447 3.29980469 7.25219727 C0 2.21981139 0 2.21981139 0 0 Z " fill="#171717" transform="translate(651,471)"/>
<path d="M0 0 C46.31122337 -0.3891812 92.62227354 -0.68869843 138.93481003 -0.8681106 C144.40340142 -0.8893724 149.87198959 -0.9113759 155.34057617 -0.93383789 C156.97360964 -0.94052681 156.97360964 -0.94052681 158.63963368 -0.94735085 C176.26368785 -1.02130757 193.88679855 -1.15533448 211.51029316 -1.31159753 C229.59613587 -1.47062163 247.68148478 -1.56500863 265.76799792 -1.59950441 C276.92741272 -1.6228225 288.084161 -1.69643457 299.24275478 -1.83457994 C306.89661831 -1.92450433 314.54910532 -1.95158997 322.20345864 -1.92952342 C326.61970525 -1.91864011 331.03129791 -1.9352003 335.4467144 -2.02649307 C361.24663128 -2.53405834 361.24663128 -2.53405834 367.45943427 1.66046834 C371.24759594 5.55458546 373.40623699 9.85450527 375.21102178 14.93325436 C376.38636233 18.01208455 378.09433594 20.51369837 379.93359375 23.2421875 C381.10285441 25.11898742 382.27082661 26.99659067 383.4375 28.875 C384.72749617 30.94554208 386.01786502 33.01585201 387.30859375 35.0859375 C387.93362793 36.08850586 388.55866211 37.09107422 389.20263672 38.12402344 C391.78674571 42.25887863 394.39155403 46.38046955 397 50.5 C402.1770083 58.67902413 407.30799344 66.886341 412.43359375 75.09765625 C416.27149019 81.24299963 420.12512731 87.37791117 424 93.5 C428.52586201 100.65061666 433.01887978 107.82126466 437.5 115 C443.96500745 125.35564288 450.47051621 135.68492276 457 146 C464.18029382 157.34320686 471.32410438 168.70823745 478.43286133 180.09643555 C482.27096591 186.24220848 486.12487354 192.37751023 490 198.5 C495.17684221 206.67913011 500.30799264 214.88633973 505.43359375 223.09765625 C509.27149019 229.24299963 513.12512731 235.37791117 517 241.5 C521.52586201 248.65061666 526.01887978 255.82126466 530.5 263 C536.96500745 273.35564288 543.47051621 283.68492276 550 294 C557.18029382 305.34320686 564.32410438 316.70823745 571.43286133 328.09643555 C575.27096591 334.24220848 579.12487354 340.37751023 583 346.5 C588.17684221 354.67913011 593.30799264 362.88633973 598.43359375 371.09765625 C602.27149019 377.24299963 606.12512731 383.37791117 610 389.5 C615.17684221 397.67913011 620.30799264 405.88633973 625.43359375 414.09765625 C629.27149019 420.24299963 633.12512731 426.37791117 637 432.5 C641.52586201 439.65061666 646.01887978 446.82126466 650.5 454 C656.96500745 464.35564288 663.47051621 474.68492276 670 485 C670.9610142 486.51818062 671.92195138 488.03640999 672.8828125 489.5546875 C673.60633911 490.69756226 673.60633911 490.69756226 674.34448242 491.86352539 C675.31847389 493.40542207 676.29001727 494.94886805 677.2590332 496.49389648 C680.17907454 501.14649888 683.14825795 505.7616882 686.16015625 510.35546875 C687.56524338 512.52855583 688.97019293 514.70173187 690.375 516.875 C691.06053955 517.90391357 691.7460791 518.93282715 692.45239258 519.99291992 C693.0739624 520.96205322 693.69553223 521.93118652 694.3359375 522.9296875 C694.89845215 523.78804199 695.4609668 524.64639648 696.04052734 525.53076172 C697 528 697 528 696.36669922 530.47924805 C694.90805345 533.16958703 693.40660038 535.79892426 691.796875 538.40234375 C691.15355225 539.44600098 690.51022949 540.4896582 689.84741211 541.56494141 C689.15526611 542.67788574 688.46312012 543.79083008 687.75 544.9375 C687.02529846 546.10845381 686.30077282 547.2795165 685.57641602 548.45068359 C680.52286914 556.60799193 675.39510363 564.71713036 670.22607422 572.80175781 C665.89956822 579.57058688 661.62641703 586.37128127 657.375 593.1875 C650.47899367 604.24251092 643.53037901 615.2632777 636.56152344 626.27246094 C629.86180847 636.85882597 623.20115599 647.46876829 616.56713867 658.09643555 C612.25313219 665.00424738 607.91420503 671.895714 603.55859375 678.77734375 C599.51576885 685.17039752 595.5053202 691.58339613 591.5 698 C586.54317759 705.94092963 581.56495249 713.86756829 576.55859375 721.77734375 C572.51576885 728.17039752 568.5053202 734.58339613 564.5 741 C559.54317759 748.94092963 554.56495249 756.86756829 549.55859375 764.77734375 C545.51576867 771.17039781 541.50536438 777.58342346 537.5 784 C530.560222 795.1161299 523.57050694 806.19988483 516.56152344 817.27246094 C509.86180847 827.85882597 503.20115599 838.46876829 496.56713867 849.09643555 C492.25313219 856.00424738 487.91420503 862.895714 483.55859375 869.77734375 C479.51576885 876.17039752 475.5053202 882.58339613 471.5 889 C466.54317759 896.94092963 461.56495249 904.86756829 456.55859375 912.77734375 C452.51576867 919.17039781 448.50536438 925.58342346 444.5 932 C437.560222 943.1161299 430.57050694 954.19988483 423.56152344 965.27246094 C416.86180847 975.85882597 410.20115599 986.46876829 403.56713867 997.09643555 C399.2576577 1003.99700091 394.92439652 1010.88195298 390.57177734 1017.75537109 C387.74359463 1022.22596942 384.93173124 1026.706325 382.1328125 1031.1953125 C381.46765625 1032.26201172 380.8025 1033.32871094 380.1171875 1034.42773438 C378.82686998 1036.49856749 377.5377312 1038.57013573 376.25 1040.64257812 C375.65445312 1041.59841797 375.05890625 1042.55425781 374.4453125 1043.5390625 C373.92469238 1044.37646973 373.40407227 1045.21387695 372.86767578 1046.07666016 C371.94317627 1047.52371338 371.94317627 1047.52371338 371 1049 C370.67581774 1049.73134043 370.35163547 1050.46268086 370.0176295 1051.21618313 C368.60193361 1053.99254981 367.30984225 1055.89160461 365 1058 C360.18449243 1059.35484351 355.38315713 1059.1777343 350.42166138 1059.08229065 C348.91091604 1059.08621637 347.40017669 1059.09409855 345.88946998 1059.10559314 C341.74066577 1059.12571755 337.59395271 1059.08972631 333.44541502 1059.04459059 C328.97104201 1059.0057316 324.49678736 1059.01887616 320.02229309 1059.02571106 C312.27094695 1059.03043081 304.52028249 1059.00218904 296.76910782 1058.95157051 C285.56232704 1058.87843301 274.35587595 1058.85498827 263.14888237 1058.84367859 C244.96658106 1058.82397983 226.78464309 1058.76408278 208.60253906 1058.67895508 C190.94012267 1058.59634651 173.27780495 1058.53263951 155.61523438 1058.49438477 C154.52655733 1058.49202025 153.43788029 1058.48965574 152.31621303 1058.48721958 C146.85465145 1058.47547426 141.39308917 1058.46410088 135.93152642 1058.45291245 C90.62076593 1058.35960859 45.31040171 1058.20108747 0 1058 C0.78798857 1054.51350304 2.03592555 1052.06142832 3.95703125 1049.02734375 C4.56869141 1048.05539062 5.18035156 1047.0834375 5.81054688 1046.08203125 C6.47119141 1045.04433594 7.13183594 1044.00664063 7.8125 1042.9375 C8.49248047 1041.85984375 9.17246094 1040.7821875 9.87304688 1039.671875 C11.91049339 1036.44480414 13.95474723 1033.22212721 16 1030 C17.52870467 1027.5821647 19.05581129 1025.16332689 20.58276367 1022.74438477 C21.53403819 1021.23791333 22.48603366 1019.73189692 23.4387207 1018.22631836 C27.48308073 1011.83244824 31.49388096 1005.41788363 35.5 999 C40.45682241 991.05907037 45.43504751 983.13243171 50.44140625 975.22265625 C54.48423115 968.82960248 58.4946798 962.41660387 62.5 956 C67.45682241 948.05907037 72.43504751 940.13243171 77.44140625 932.22265625 C81.48423133 925.82960219 85.49463562 919.41657654 89.5 913 C96.439778 901.8838701 103.42949306 890.80011517 110.43847656 879.72753906 C117.13819153 869.14117403 123.79884401 858.53123171 130.43286133 847.90356445 C134.74686781 840.99575262 139.08579497 834.104286 143.44140625 827.22265625 C147.48423115 820.82960248 151.4946798 814.41660387 155.5 808 C160.45682241 800.05907037 165.43504751 792.13243171 170.44140625 784.22265625 C174.48423115 777.82960248 178.4946798 771.41660387 182.5 765 C187.45682241 757.05907037 192.43504751 749.13243171 197.44140625 741.22265625 C201.48423133 734.82960219 205.49463562 728.41657654 209.5 722 C216.439778 710.8838701 223.42949306 699.80011517 230.43847656 688.72753906 C237.13819153 678.14117403 243.79884401 667.53123171 250.43286133 656.90356445 C254.74686781 649.99575262 259.08579497 643.104286 263.44140625 636.22265625 C267.48423115 629.82960248 271.4946798 623.41660387 275.5 617 C280.45682241 609.05907037 285.43504751 601.13243171 290.44140625 593.22265625 C295.12969034 585.80891635 299.77393811 578.36787491 304.41821289 570.92651367 C307.90271671 565.34637772 311.39821414 559.77361618 314.91748047 554.21533203 C315.91502905 552.63841698 316.91022696 551.06001193 317.90283203 549.47998047 C320.09212638 545.99601533 322.3006334 542.53257469 324.58984375 539.11328125 C324.97922119 538.51862061 325.36859863 537.92395996 325.76977539 537.3112793 C326.79026271 535.7542866 327.82797384 534.20861927 328.8671875 532.6640625 C330.2479909 530.11679895 330.2479909 530.11679895 329.53515625 527.7265625 C327.26677059 523.69772486 324.95973883 519.70388253 322.5625 515.75 C321.75679565 514.41437012 321.75679565 514.41437012 320.93481445 513.05175781 C317.18318146 506.86611164 313.31504478 500.76740809 309.35546875 494.71337891 C305.34270552 488.56776949 301.44452501 482.35387445 297.5625 476.125 C293.06188336 468.90367161 288.55203159 461.68904396 284 454.5 C279.47399277 447.34947596 274.98111953 440.17873425 270.5 433 C264.03499255 422.64435712 257.52948379 412.31507724 251 402 C243.81970618 390.65679314 236.67589562 379.29176255 229.56713867 367.90356445 C225.72903409 361.75779152 221.87512646 355.62248977 218 349.5 C212.82315779 341.32086989 207.69200736 333.11366027 202.56640625 324.90234375 C198.72850981 318.75700037 194.87487269 312.62208883 191 306.5 C185.82315779 298.32086989 180.69200736 290.11366027 175.56640625 281.90234375 C171.72850981 275.75700037 167.87487269 269.62208883 164 263.5 C159.47413799 256.34938334 154.98112022 249.17873534 150.5 242 C144.03499255 231.64435712 137.52948379 221.31507724 131 211 C123.81970618 199.65679314 116.67589562 188.29176255 109.56713867 176.90356445 C105.72903409 170.75779152 101.87512646 164.62248977 98 158.5 C92.82315779 150.32086989 87.69200736 142.11366027 82.56640625 133.90234375 C78.72850981 127.75700037 74.87487269 121.62208883 71 115.5 C66.47413799 108.34938334 61.98112022 101.17873534 57.5 94 C51.03499255 83.64435712 44.52948379 73.31507724 38 63 C36.06173251 59.93798476 34.12412445 56.8755547 32.1875 53.8125 C31.70071777 53.04268799 31.21393555 52.27287598 30.71240234 51.47973633 C27.89396505 47.01683068 25.08941533 42.54556602 22.296875 38.06640625 C21.66185059 37.04788574 21.02682617 36.02936523 20.37255859 34.97998047 C19.09091388 32.923463 17.80997975 30.86650252 16.52978516 28.80908203 C13.5982174 24.10929121 10.64523746 19.42892074 7.6015625 14.80078125 C7.08537354 14.01525879 6.56918457 13.22973633 6.03735352 12.42041016 C5.08059831 10.9718945 4.1178835 9.52729093 3.14819336 8.08740234 C0 3.32666063 0 3.32666063 0 0 Z " fill="#171717" transform="translate(84,471)"/>
<path d="M0 0 C46.37955933 -0.22881548 92.759059 -0.40505921 139.13907135 -0.51065329 C144.61281607 -0.52316058 150.08655967 -0.53610378 155.56030273 -0.54931641 C157.19491006 -0.55325106 157.19491006 -0.55325106 158.86253976 -0.55726521 C176.51483402 -0.60079589 194.16680309 -0.67965099 211.81890435 -0.77152796 C229.92736658 -0.86499517 248.03565834 -0.92057754 266.1443519 -0.94088495 C277.32144212 -0.95461644 288.4976133 -0.99800646 299.67442065 -1.07916467 C307.33553758 -1.13196553 314.99617841 -1.14801468 322.65746415 -1.13501377 C327.08011891 -1.12859882 331.50116636 -1.13852895 335.9235363 -1.19205475 C339.97286592 -1.24070803 344.01950755 -1.24319478 348.06896072 -1.20898895 C349.53346347 -1.20476178 350.99813363 -1.21746911 352.46230663 -1.24883182 C363.402458 -1.46954073 363.402458 -1.46954073 367.38633907 2.19513631 C369.18455989 4.72687981 370.62554004 7.22007366 372 10 C372.67361572 11.04704102 373.34723145 12.09408203 374.04125977 13.17285156 C374.85808228 14.51814941 374.85808228 14.51814941 375.69140625 15.890625 C376.63222046 17.43194092 376.63222046 17.43194092 377.59204102 19.00439453 C378.24229248 20.07544434 378.89254395 21.14649414 379.5625 22.25 C380.97668056 24.56662952 382.39405842 26.88128989 383.8125 29.1953125 C384.16627213 29.77268158 384.52004425 30.35005066 384.88453674 30.94491577 C388.21864728 36.37596836 391.62854311 41.75671007 395.0625 47.125 C400.60973352 55.79892794 406.08665361 64.51438896 411.53540039 73.25048828 C415.33811883 79.34570975 419.15740631 85.42984398 423 91.5 C427.52591725 98.65058142 432.01888005 105.82126508 436.5 113 C442.96500745 123.35564288 449.47051621 133.68492276 456 144 C463.18029382 155.34320686 470.32410438 166.70823745 477.43286133 178.09643555 C481.27096591 184.24220848 485.12487354 190.37751023 489 196.5 C494.17684221 204.67913011 499.30799264 212.88633973 504.43359375 221.09765625 C508.27149019 227.24299963 512.12512731 233.37791117 516 239.5 C521.17684221 247.67913011 526.30799264 255.88633973 531.43359375 264.09765625 C535.27149019 270.24299963 539.12512731 276.37791117 543 282.5 C547.52586201 289.65061666 552.01887978 296.82126466 556.5 304 C562.96500745 314.35564288 569.47051621 324.68492276 576 335 C583.18029382 346.34320686 590.32410438 357.70823745 597.43286133 369.09643555 C601.27096591 375.24220848 605.12487354 381.37751023 609 387.5 C614.17684221 395.67913011 619.30799264 403.88633973 624.43359375 412.09765625 C628.27149019 418.24299963 632.12512731 424.37791117 636 430.5 C640.52586201 437.65061666 645.01887978 444.82126466 649.5 452 C655.96500745 462.35564288 662.47051621 472.68492276 669 483 C672.44188793 488.43738847 675.87915023 493.87763413 679.30957031 499.32226562 C680.52789278 501.25215598 681.74892957 503.18033377 682.97167969 505.10742188 C685.04858266 508.38100264 687.11845417 511.65894895 689.1875 514.9375 C689.84790283 515.97479248 690.50830566 517.01208496 691.1887207 518.08081055 C691.80062256 519.0531665 692.41252441 520.02552246 693.04296875 521.02734375 C693.86317505 522.32273071 693.86317505 522.32273071 694.69995117 523.64428711 C695.93513091 525.88245599 696.76371903 527.46037703 697 530 C696.18652344 532.02026367 696.18652344 532.02026367 694.859375 534.16796875 C694.37170654 534.96944336 693.88403809 535.77091797 693.3815918 536.59667969 C692.8431665 537.45165039 692.30474121 538.30662109 691.75 539.1875 C691.19932861 540.08243164 690.64865723 540.97736328 690.08129883 541.89941406 C686.25770515 548.0825264 682.3341635 554.20161924 678.35620117 560.28637695 C674.34215882 566.43139206 670.44462566 572.64596404 666.5625 578.875 C662.06188336 586.09632839 657.55203159 593.31095604 653 600.5 C648.47399298 607.65052371 643.98107011 614.82123516 639.5 622 C634.54317759 629.94092963 629.56495249 637.86756829 624.55859375 645.77734375 C620.51576867 652.17039781 616.50536438 658.58342346 612.5 665 C605.560222 676.1161299 598.57050694 687.19988483 591.56152344 698.27246094 C584.86180847 708.85882597 578.20115599 719.46876829 571.56713867 730.09643555 C567.25313219 737.00424738 562.91420503 743.895714 558.55859375 750.77734375 C554.51576885 757.17039752 550.5053202 763.58339613 546.5 770 C541.54317759 777.94092963 536.56495249 785.86756829 531.55859375 793.77734375 C527.51576885 800.17039752 523.5053202 806.58339613 519.5 813 C514.54317759 820.94092963 509.56495249 828.86756829 504.55859375 836.77734375 C500.51576867 843.17039781 496.50536438 849.58342346 492.5 856 C485.560222 867.1161299 478.57050694 878.19988483 471.56152344 889.27246094 C464.86180847 899.85882597 458.20115599 910.46876829 451.56713867 921.09643555 C447.25313219 928.00424738 442.91420503 934.895714 438.55859375 941.77734375 C434.51576885 948.17039752 430.5053202 954.58339613 426.5 961 C421.54317759 968.94092963 416.56495249 976.86756829 411.55859375 984.77734375 C407.51576867 991.17039781 403.50536438 997.58342346 399.5 1004 C394.00262265 1012.80569388 388.48201115 1021.59604351 382.9296875 1030.3671875 C380.84524782 1033.66012106 378.76833371 1036.95767891 376.6953125 1040.2578125 C376.15028076 1041.1243042 375.60524902 1041.9907959 375.04370117 1042.88354492 C374.00086118 1044.54172233 372.95928292 1046.20069416 371.91918945 1047.8605957 C371.44956787 1048.60656006 370.97994629 1049.35252441 370.49609375 1050.12109375 C370.08544678 1050.7752124 369.6747998 1051.42933105 369.25170898 1052.10327148 C368.83864502 1052.72919189 368.42558105 1053.3551123 368 1054 C367.6043666 1054.68896858 367.20873321 1055.37793716 366.80111092 1056.08778358 C365 1058 365 1058 362.28701383 1058.49679399 C361.17936963 1058.4952751 360.07172542 1058.49375622 358.93051624 1058.49219131 C357.01439745 1058.50413761 357.01439745 1058.50413761 355.05956918 1058.51632524 C353.63385153 1058.50491224 352.20813681 1058.49312984 350.78242493 1058.48101807 C349.27428068 1058.48276134 347.76613761 1058.48626175 346.25800103 1058.49137473 C342.10305054 1058.50034667 337.9485101 1058.48428096 333.79361188 1058.46426249 C329.31714004 1058.4470336 324.84069244 1058.45283094 320.36419678 1058.45587158 C312.60484117 1058.45797184 304.84561982 1058.44539208 297.08629799 1058.42292023 C285.86756045 1058.39045063 274.64888801 1058.37999838 263.43010857 1058.37496826 C245.22965469 1058.36620768 227.02927241 1058.33957143 208.82885742 1058.30175781 C191.14591837 1058.26505745 173.46299874 1058.23673603 155.7800293 1058.21972656 C154.14583147 1058.21815022 154.14583147 1058.21815022 152.47861955 1058.21654204 C147.01324557 1058.21132199 141.54787145 1058.20626713 136.08249724 1058.20129442 C90.72161522 1058.15980864 45.3608113 1058.08933948 0 1058 C1.44726249 1054.27435718 3.09853548 1051.00142279 5.203125 1047.59765625 C5.84644775 1046.55399902 6.48977051 1045.5103418 7.15258789 1044.43505859 C7.84473389 1043.32211426 8.53687988 1042.20916992 9.25 1041.0625 C9.97470154 1039.89154619 10.69922718 1038.7204835 11.42358398 1037.54931641 C16.47713086 1029.39200807 21.60489637 1021.28286964 26.77392578 1013.19824219 C31.74851576 1005.41548418 36.64726099 997.58677651 41.53540039 989.74951172 C45.33811883 983.65429025 49.15740631 977.57015602 53 971.5 C57.52591725 964.34941858 62.01888005 957.17873492 66.5 950 C73.439778 938.8838701 80.42949306 927.80011517 87.43847656 916.72753906 C94.13819153 906.14117403 100.79884401 895.53123171 107.43286133 884.90356445 C111.74686781 877.99575262 116.08579497 871.104286 120.44140625 864.22265625 C124.48423115 857.82960248 128.4946798 851.41660387 132.5 845 C137.45682241 837.05907037 142.43504751 829.13243171 147.44140625 821.22265625 C151.48423115 814.82960248 155.4946798 808.41660387 159.5 802 C164.45682241 794.05907037 169.43504751 786.13243171 174.44140625 778.22265625 C178.48423133 771.82960219 182.49463562 765.41657654 186.5 759 C193.439778 747.8838701 200.42949306 736.80011517 207.43847656 725.72753906 C214.13819153 715.14117403 220.79884401 704.53123171 227.43286133 693.90356445 C231.74686781 686.99575262 236.08579497 680.104286 240.44140625 673.22265625 C244.48423115 666.82960248 248.4946798 660.41660387 252.5 654 C257.45682241 646.05907037 262.43504751 638.13243171 267.44140625 630.22265625 C271.48423115 623.82960248 275.4946798 617.41660387 279.5 611 C284.45682241 603.05907037 289.43504751 595.13243171 294.44140625 587.22265625 C298.4842315 580.82960192 302.49459364 574.41655059 306.5 568 C311.21462421 560.44912634 315.93753111 552.90370069 320.6875 545.375 C321.16832031 544.611875 321.64914062 543.84875 322.14453125 543.0625 C322.59570312 542.34835937 323.046875 541.63421875 323.51171875 540.8984375 C323.93114746 540.2290918 324.35057617 539.55974609 324.78271484 538.87011719 C325.5683494 537.66314552 326.38997243 536.4785164 327.25244141 535.32519531 C329.52473987 532.31208767 329.52473987 532.31208767 329.79443359 528.66333008 C328.88256631 525.60630483 327.58365315 523.30464598 325.89453125 520.59765625 C325.24774414 519.55359619 324.60095703 518.50953613 323.93457031 517.43383789 C323.23428711 516.32129639 322.53400391 515.20875488 321.8125 514.0625 C321.08506655 512.8954407 320.35818537 511.728037 319.63183594 510.56030273 C313.36602395 500.50644485 307.00181286 490.51428988 300.61865234 480.53466797 C292.85354117 468.37518318 285.20631365 456.14134298 277.56665039 443.90283203 C273.72874573 437.75727991 269.87496961 431.62224195 266 425.5 C260.82315779 417.32086989 255.69200736 409.11366027 250.56640625 400.90234375 C246.72850981 394.75700037 242.87487269 388.62208883 239 382.5 C233.82315779 374.32086989 228.69200736 366.11366027 223.56640625 357.90234375 C219.72850981 351.75700037 215.87487269 345.62208883 212 339.5 C207.47413799 332.34938334 202.98112022 325.17873534 198.5 318 C192.03499255 307.64435712 185.52948379 297.31507724 179 287 C171.81970618 275.65679314 164.67589562 264.29176255 157.56713867 252.90356445 C153.72903409 246.75779152 149.87512646 240.62248977 146 234.5 C140.82315779 226.32086989 135.69200736 218.11366027 130.56640625 209.90234375 C126.72850981 203.75700037 122.87487269 197.62208883 119 191.5 C113.82315779 183.32086989 108.69200736 175.11366027 103.56640625 166.90234375 C99.72850981 160.75700037 95.87487269 154.62208883 92 148.5 C87.47413799 141.34938334 82.98112022 134.17873534 78.5 127 C72.03499255 116.64435712 65.52948379 106.31507724 59 96 C51.81970618 84.65679314 44.67589562 73.29176255 37.56713867 61.90356445 C33.729034 55.75779138 29.87510881 49.62250107 26 43.5 C19.49783891 33.22634057 13.04991636 22.91862801 6.62548828 12.59619141 C5.57630459 10.92046005 4.51800686 9.25038461 3.44873047 7.58740234 C0 2.20534773 0 2.20534773 0 0 Z " fill="#171717" transform="translate(1219,471)"/>
</svg>
